<?xml version="1.0" encoding="UTF-8"?>
<!DOCTYPE svg PUBLIC "-//W3C//DTD SVG 1.1//EN" "http://www.w3.org/Graphics/SVG/1.1/DTD/svg11.dtd">
<svg xmlns="http://www.w3.org/2000/svg" version="1.1" width="192px" height="192px" style="shape-rendering:geometricPrecision; text-rendering:geometricPrecision; image-rendering:optimizeQuality; fill-rule:evenodd; clip-rule:evenodd" xmlns:xlink="http://www.w3.org/1999/xlink">
<g><path style="opacity:0.997" fill="#010101" d="M 10.5,-0.5 C 67.1667,-0.5 123.833,-0.5 180.5,-0.5C 184.489,2.82277 188.156,6.48943 191.5,10.5C 191.5,67.1667 191.5,123.833 191.5,180.5C 188.167,184.5 184.5,188.167 180.5,191.5C 123.833,191.5 67.1667,191.5 10.5,191.5C 6.5,188.167 2.83333,184.5 -0.5,180.5C -0.5,123.833 -0.5,67.1667 -0.5,10.5C 2.8439,6.48943 6.51056,2.82277 10.5,-0.5 Z"/></g>
<g><path style="opacity:1" fill="#979797" d="M 61.5,36.5 C 51.963,37.2153 42.2963,37.8819 32.5,38.5C 32.6107,37.8826 32.944,37.3826 33.5,37C 42.8274,36.5002 52.1607,36.3335 61.5,36.5 Z"/></g>
<g><path style="opacity:1" fill="#f5f5f5" d="M 61.5,36.5 C 76.0504,34.6915 86.5504,40.3581 93,53.5C 94.7003,73.6031 85.867,86.4364 66.5,92C 62.7387,92.7383 59.0721,92.4049 55.5,91C 51.5,87.3333 51.5,83.6667 55.5,80C 58.4192,79.4484 61.0859,80.1151 63.5,82C 80.5323,83.517 87.699,75.6836 85,58.5C 79.1405,48.0682 70.1405,43.4015 58,44.5C 55.245,44.5252 52.5783,44.8586 50,45.5C 48.7175,69.1252 48.0508,92.7918 48,116.5C 45.4693,120.79 41.9693,121.623 37.5,119C 36.2815,117.562 35.6148,115.895 35.5,114C 35.8537,110.263 37.3537,107.097 40,104.5C 40.4648,84.8291 40.2982,65.1624 39.5,45.5C 33.9408,45.9449 31.6074,43.6116 32.5,38.5C 42.2963,37.8819 51.963,37.2153 61.5,36.5 Z"/></g>
<g><path style="opacity:1" fill="#f2f2f2" d="M 115.5,70.5 C 115.183,73.5719 115.516,76.5719 116.5,79.5C 117.107,79.3764 117.44,79.0431 117.5,78.5C 126.272,66.6311 137.605,63.1311 151.5,68C 158.815,74.6177 161.315,82.7844 159,92.5C 154.738,108.098 144.738,117.432 129,120.5C 123.246,120.739 121.246,118.072 123,112.5C 123.5,112 124,111.5 124.5,111C 136.474,114.128 145.308,110.294 151,99.5C 153.522,81.3552 145.688,73.5218 127.5,76C 122.814,79.3652 119.647,83.8652 118,89.5C 118.081,110.165 118.081,130.832 118,151.5C 111.63,156.52 107.796,155.02 106.5,147C 106.946,143.825 107.446,140.658 108,137.5C 108.667,118.833 108.667,100.167 108,81.5C 105.473,77.4696 104.473,73.1362 105,68.5C 107.679,65.1654 110.845,64.6654 114.5,67C 115.337,68.0113 115.67,69.1779 115.5,70.5 Z"/></g>
<g><path style="opacity:1" fill="#888888" d="M 115.5,70.5 C 116.167,73.1667 116.833,75.8333 117.5,78.5C 117.44,79.0431 117.107,79.3764 116.5,79.5C 115.516,76.5719 115.183,73.5719 115.5,70.5 Z"/></g>
</svg>
