<svg xmlns="http://www.w3.org/2000/svg" xmlns:xlink="http://www.w3.org/1999/xlink" id="svg" width="400" height="130.27522935779817" viewBox="0, 0, 400,130.27522935779817 undefined"><g id="svgg"><path id="path0" d="M90.320 22.008 C 88.024 24.918,84.940 30.183,83.467 33.708 C 79.974 42.069,78.575 42.750,69.767 40.378 C 43.583 33.328,21.316 63.284,34.115 88.343 C 36.399 92.813,36.162 93.747,31.142 100.064 C 28.142 103.838,25.688 107.226,25.688 107.592 C 25.688 111.182,33.186 103.542,56.098 76.606 C 70.905 59.197,86.757 41.606,91.323 37.513 C 99.110 30.533,99.546 29.651,98.353 23.293 C 96.838 15.215,95.810 15.051,90.320 22.008 M114.121 49.014 C 110.697 49.669,106.422 55.644,106.422 59.774 C 106.422 60.225,109.725 60.066,113.761 59.420 C 122.677 57.995,122.802 58.727,114.985 66.544 C 111.621 69.908,108.838 73.858,108.801 75.321 C 108.764 76.784,108.122 81.078,107.374 84.862 C 105.654 93.560,109.005 94.173,111.810 85.674 C 113.666 80.051,114.351 79.633,121.127 79.979 C 125.149 80.184,128.440 79.563,128.440 78.600 C 128.440 77.636,129.145 77.283,130.007 77.816 C 130.869 78.348,132.502 76.746,133.637 74.254 C 134.772 71.763,136.530 69.725,137.544 69.725 C 138.558 69.725,137.661 72.821,135.551 76.606 C 133.442 80.390,132.374 82.847,133.179 82.067 C 133.985 81.286,135.544 82.852,136.646 85.547 C 138.539 90.179,138.821 90.275,141.801 87.294 C 144.553 84.542,144.954 84.508,144.954 87.025 C 144.954 90.698,149.724 90.800,151.122 87.156 C 151.703 85.642,153.030 84.404,154.071 84.404 C 155.112 84.404,155.963 85.642,155.963 87.156 C 155.963 91.835,167.380 89.201,171.073 83.670 C 171.848 82.510,172.433 83.406,172.449 85.780 C 172.479 90.173,176.672 91.261,181.590 88.150 C 183.282 87.080,185.122 87.147,186.548 88.330 C 189.127 90.471,196.330 88.760,196.330 86.007 C 196.330 85.006,197.069 84.644,197.973 85.202 C 200.399 86.702,202.273 80.438,200.060 78.225 C 199.018 77.183,198.165 73.922,198.165 70.979 C 198.165 66.324,197.627 65.771,194.037 66.733 C 191.766 67.342,189.342 67.851,188.651 67.865 C 187.959 67.879,186.359 70.751,185.094 74.248 C 183.830 77.745,181.712 81.022,180.388 81.530 C 176.930 82.857,177.423 80.105,181.593 74.802 C 185.459 69.888,190.424 54.033,188.652 52.261 C 188.064 51.673,184.851 53.689,181.510 56.740 C 178.170 59.791,176.002 62.852,176.693 63.543 C 177.384 64.235,177.074 65.855,176.004 67.145 C 174.933 68.435,173.360 71.814,172.507 74.653 L 170.958 79.817 170.800 73.745 C 170.698 69.826,169.927 68.115,168.624 68.920 C 167.508 69.610,167.713 68.328,169.083 66.053 C 175.145 55.981,176.094 53.939,176.120 50.917 C 176.201 41.223,161.403 56.488,157.764 69.852 C 155.549 77.986,148.624 86.280,148.624 80.799 C 148.624 79.754,149.498 78.899,150.567 78.899 C 151.636 78.899,152.000 78.073,151.376 77.064 C 150.752 76.055,151.117 75.229,152.185 75.229 C 153.254 75.229,154.128 72.663,154.128 69.526 C 154.128 63.872,146.298 62.746,143.089 67.939 C 140.527 72.084,137.125 66.103,138.064 59.104 C 139.425 48.957,131.622 45.669,114.121 49.014 M224.473 49.539 C 220.571 51.112,217.017 57.995,219.054 60.033 C 219.627 60.605,221.175 60.177,222.494 59.082 C 226.834 55.480,230.423 59.505,227.870 65.110 C 226.661 67.762,224.910 69.460,223.978 68.884 C 222.221 67.798,219.687 73.424,219.054 79.817 C 218.854 81.835,218.135 85.230,217.455 87.362 C 216.603 90.029,217.122 91.584,219.118 92.350 C 221.027 93.082,222.114 92.385,222.298 90.309 C 222.452 88.575,222.668 86.182,222.780 84.992 C 223.118 81.383,225.141 80.367,231.988 80.367 C 235.587 80.367,238.532 79.486,238.532 78.410 C 238.532 77.333,239.043 76.964,239.668 77.588 C 242.557 80.478,249.541 67.937,249.541 59.860 C 249.541 50.061,236.496 44.690,224.473 49.539 M82.048 51.835 C 81.546 53.096,72.748 63.963,62.497 75.984 C 42.669 99.235,42.534 99.721,55.344 101.885 C 74.509 105.123,87.211 89.396,79.932 71.442 C 79.198 69.633,80.846 66.397,84.385 62.693 C 89.032 57.831,89.666 56.187,88.056 53.178 C 85.836 49.029,83.384 48.481,82.048 51.835 M268.573 56.422 C 265.681 60.206,263.527 63.945,263.785 64.730 C 264.043 65.515,262.983 66.645,261.430 67.241 C 259.643 67.926,259.009 69.593,259.702 71.777 C 260.308 73.685,259.922 75.229,258.839 75.229 C 257.762 75.229,256.881 76.367,256.881 77.757 C 256.881 79.147,255.642 81.312,254.128 82.569 C 250.176 85.849,250.366 79.387,254.351 74.983 C 256.165 72.979,256.826 70.417,256.045 68.417 C 253.890 62.903,246.595 73.682,246.430 82.623 C 246.278 90.838,249.381 92.206,255.671 86.697 C 259.163 83.639,259.282 83.639,258.167 86.697 C 256.805 90.433,258.815 90.910,262.095 87.630 C 263.909 85.816,264.704 85.888,266.000 87.984 C 267.347 90.164,268.490 90.224,272.638 88.334 C 276.397 86.621,277.976 86.580,278.958 88.169 C 279.941 89.759,281.241 89.766,284.170 88.198 C 286.739 86.824,288.073 86.759,288.073 88.009 C 288.073 90.795,291.064 90.325,294.370 87.020 C 296.998 84.391,297.358 84.391,298.367 87.020 C 299.670 90.416,305.062 90.765,310.583 87.810 C 313.525 86.236,314.678 86.236,315.203 87.810 C 316.213 90.841,322.195 90.387,325.557 87.025 C 327.143 85.439,328.440 85.052,328.440 86.165 C 328.440 89.815,333.782 90.333,337.109 87.006 C 340.111 84.004,340.414 83.990,340.960 86.828 C 341.999 92.222,352.349 90.386,354.626 84.404 C 355.326 82.565,355.722 83.021,355.818 85.780 C 356.072 92.993,370.642 88.033,370.642 80.734 C 370.642 77.982,367.612 78.522,364.264 81.870 C 362.630 83.504,360.894 84.441,360.406 83.953 C 358.918 82.465,365.898 71.584,368.349 71.571 C 369.610 71.565,370.734 70.940,370.847 70.183 C 372.687 57.838,372.491 56.744,368.790 58.725 C 366.781 59.800,365.138 61.380,365.138 62.236 C 365.138 63.092,363.453 64.233,361.395 64.771 C 358.469 65.536,357.898 66.732,358.781 70.248 C 359.654 73.728,358.784 75.631,354.937 78.657 C 348.372 83.821,342.698 84.039,348.624 78.899 C 350.951 76.881,353.554 75.229,354.409 75.229 C 355.264 75.229,355.963 73.165,355.963 70.642 C 355.963 62.968,348.337 64.503,343.474 73.156 C 338.578 81.866,334.751 85.358,333.074 82.644 C 332.415 81.578,333.167 79.415,334.745 77.837 C 339.310 73.272,338.632 65.381,333.894 67.917 C 331.847 69.013,330.657 70.693,331.250 71.652 C 331.842 72.610,331.452 73.394,330.384 73.394 C 329.315 73.394,328.440 74.945,328.440 76.840 C 328.440 78.734,327.213 81.303,325.712 82.549 C 323.335 84.522,323.241 84.075,324.986 79.071 C 327.286 72.471,325.699 63.609,322.409 64.692 C 321.185 65.095,319.938 67.077,319.638 69.095 C 319.145 72.420,309.708 84.404,307.584 84.404 C 307.099 84.404,307.818 82.133,309.181 79.358 C 311.665 74.299,310.983 64.220,308.157 64.220 C 307.328 64.220,303.982 67.936,300.720 72.477 C 295.014 80.424,291.743 82.763,291.743 78.899 C 291.743 77.890,292.405 77.064,293.214 77.064 C 294.024 77.064,294.767 74.174,294.868 70.642 C 294.968 67.110,294.345 64.220,293.483 64.220 C 289.310 64.220,283.084 68.682,279.397 74.315 C 274.615 81.621,266.184 87.350,269.596 80.975 C 270.687 78.936,272.401 76.761,273.404 76.141 C 275.288 74.977,276.013 66.055,274.224 66.055 C 273.671 66.055,271.144 68.326,268.609 71.101 C 265.172 74.862,264.469 75.174,265.844 72.326 C 266.859 70.225,268.973 67.440,270.542 66.138 C 272.111 64.836,273.394 62.608,273.394 61.186 C 273.394 59.764,274.633 58.125,276.147 57.544 C 279.604 56.218,279.786 49.541,276.365 49.541 C 274.971 49.541,271.464 52.638,268.573 56.422 M51.473 54.128 C 51.329 56.852,47.224 56.352,46.272 53.494 C 45.757 51.951,46.596 51.263,48.509 51.660 C 50.193 52.008,51.526 53.119,51.473 54.128 M134.481 60.067 C 135.636 61.869,133.271 69.725,131.575 69.725 C 131.351 69.725,128.449 70.505,125.126 71.458 C 119.333 73.119,117.528 66.696,123.178 64.526 C 124.054 64.190,124.771 62.473,124.771 60.711 C 124.771 56.962,132.177 56.471,134.481 60.067 M46.147 61.468 C 46.147 62.427,45.259 63.507,44.174 63.869 C 43.089 64.230,42.202 63.150,42.202 61.468 C 42.202 59.786,43.089 58.706,44.174 59.067 C 45.259 59.429,46.147 60.509,46.147 61.468 M243.978 61.927 C 243.879 67.415,229.358 78.136,229.358 72.722 C 229.358 71.887,233.187 64.511,235.439 61.009 C 237.697 57.498,244.046 58.180,243.978 61.927 M255.586 61.373 C 253.841 63.359,253.938 64.107,256.045 64.915 C 257.514 65.479,258.716 65.620,258.716 65.230 C 258.716 64.840,259.217 63.214,259.829 61.618 C 261.189 58.075,258.614 57.926,255.586 61.373 M338.407 60.753 C 336.642 63.609,338.797 64.768,342.265 62.827 C 345.026 61.282,345.047 60.979,342.461 59.987 C 340.870 59.376,339.045 59.720,338.407 60.753 M352.294 70.358 C 352.294 70.706,350.522 72.564,348.357 74.486 C 344.441 77.963,344.432 77.960,346.587 73.853 C 348.375 70.445,352.294 68.045,352.294 70.358 M145.953 76.932 C 145.291 78.003,142.938 79.755,140.723 80.825 C 136.838 82.703,136.822 82.672,140.259 79.918 C 142.218 78.348,143.044 77.052,142.094 77.036 C 141.144 77.021,141.582 76.240,143.066 75.301 C 146.213 73.311,147.679 74.139,145.953 76.932 M193.119 76.551 C 191.858 77.001,190.761 78.746,190.681 80.428 C 190.586 82.431,190.210 82.673,189.590 81.131 C 188.508 78.438,192.608 72.680,194.298 74.519 C 194.911 75.186,194.381 76.100,193.119 76.551 M283.714 80.319 C 281.130 82.857,280.606 82.940,281.071 80.734 C 281.720 77.658,284.752 74.966,286.076 76.290 C 286.550 76.764,285.487 78.577,283.714 80.319 M73.478 79.917 C 76.890 84.028,69.360 91.734,64.763 88.834 C 60.370 86.064,59.949 83.433,63.352 80.029 C 67.085 76.297,70.442 76.259,73.478 79.917 " stroke="none" fill="#000000" fill-rule="evenodd"/></g></svg>